<svg version="1.1" xmlns="http://www.w3.org/2000/svg" viewBox="0 0 647.9999389648438 178.66668701171875" width="647.9999389648438" height="178.66668701171875" filter="invert(93%) hue-rotate(180deg)" class="excalidraw-svg"><!-- svg-source:excalidraw --><metadata></metadata><defs><style class="style-fonts">
      </style></defs><g stroke-linecap="round" transform="translate(10 12.66668701171875) rotate(0 126.66665649414062 78)"><path d="M32 0 C82.37 0.53, 128.24 -0.28, 221.33 0 M32 0 C89.22 -2.41, 144.65 -2.3, 221.33 0 M221.33 0 C243.79 -1.24, 255.07 11.52, 253.33 32 M221.33 0 C242.05 0.3, 254.68 9.32, 253.33 32 M253.33 32 C252.73 58.23, 253.54 88.56, 253.33 124 M253.33 32 C254.12 64.37, 254.01 98.14, 253.33 124 M253.33 124 C252.63 145.89, 244.46 154.56, 221.33 156 M253.33 124 C251.83 146.71, 242.92 157.25, 221.33 156 M221.33 156 C161.72 159.56, 103.2 158.14, 32 156 M221.33 156 C165.98 156.12, 110.37 156.1, 32 156 M32 156 C11.49 156.42, -0.58 144.45, 0 124 M32 156 C11.33 157.09, -1.97 145.16, 0 124 M0 124 C-0.93 89.3, 0.14 55.59, 0 32 M0 124 C-0.24 94.42, 1.35 65.58, 0 32 M0 32 C-0.4 10.84, 8.7 -1.84, 32 0 M0 32 C1 9.67, 11.02 -1.25, 32 0" stroke="#1e1e1e" stroke-width="2" fill="none"></path></g><g stroke-linecap="round" transform="translate(384.6666259765625 10) rotate(0 126.66665649414062 78)"><path d="M32 0 C99.47 0.67, 169.88 -1.65, 221.33 0 M32 0 C74.58 1.22, 118.6 -0.46, 221.33 0 M221.33 0 C241.52 0.45, 251.52 11, 253.33 32 M221.33 0 C243.12 1.64, 251.65 8.84, 253.33 32 M253.33 32 C253.22 56.98, 254.85 85.32, 253.33 124 M253.33 32 C253.3 54.87, 253.45 75.79, 253.33 124 M253.33 124 C252.15 147.18, 241.5 155.37, 221.33 156 M253.33 124 C252.79 144.37, 244.27 154.69, 221.33 156 M221.33 156 C156.48 156.51, 94.28 157.46, 32 156 M221.33 156 C150.67 157.2, 82.25 156.06, 32 156 M32 156 C9.74 156.88, -0.37 144.33, 0 124 M32 156 C9.99 155.06, -1.26 143.57, 0 124 M0 124 C-0.69 106.26, 1.26 88.09, 0 32 M0 124 C0.36 91.94, 0.62 57.58, 0 32 M0 32 C-0.77 11.5, 11.86 -1.32, 32 0 M0 32 C2.1 10.6, 10.9 -0.6, 32 0" stroke="#1e1e1e" stroke-width="2" fill="none"></path></g></svg>