<svg version="1.1" xmlns="http://www.w3.org/2000/svg" viewBox="0 0 278.6666259765625 301.78088627159593" width="278.6666259765625" height="301.78088627159593" filter="invert(93%) hue-rotate(180deg)" class="excalidraw-svg"><!-- svg-source:excalidraw --><metadata></metadata><defs><style class="style-fonts">
      </style></defs><g stroke-linecap="round"><g transform="translate(252 123.48449622541665) rotate(0 -23.666656494140625 -27)"><path d="M0.13 -1.08 C-0.31 -9.27, 4.27 -39.36, -3.71 -48.12 C-11.7 -56.89, -40.56 -52.57, -47.77 -53.65 M-1.25 0.97 C-1.68 -7.05, 3.76 -40.5, -4.16 -49.96 C-12.08 -59.43, -41.7 -55.17, -48.77 -55.82" stroke="#e03131" stroke-width="2" fill="none"></path></g></g><mask></mask><g stroke-linecap="round"><g transform="translate(24.66668701171875 291.48449622541665) rotate(0 1 -139)"><path d="M-0.88 0.3 C-0.41 -45.97, 2.02 -231.24, 2.64 -277.78 M0.86 -0.59 C1.25 -47.24, 1.75 -233.53, 2.03 -279.79" stroke="#1971c2" stroke-width="2" fill="none"></path></g></g><mask></mask><g stroke-linecap="round"><g transform="translate(24.66668701171875 190.81783973127602) rotate(0 24 -33)"><path d="M0.64 0.22 C8.49 -2.66, 38.25 -5.88, 46.2 -16.96 C54.15 -28.04, 48.16 -58.28, 48.34 -66.26 M-0.48 -0.71 C7.37 -3.49, 37.67 -5.19, 45.71 -15.92 C53.75 -26.65, 47.51 -56.61, 47.75 -65.09" stroke="#e03131" stroke-width="2" fill="none"></path></g></g><mask></mask><g stroke-linecap="round" transform="translate(10 173.48449622541665) rotate(0 15.666656494140625 15.666656494140625)"><path d="M17.45 0.18 C20.54 0.32, 24.33 2.42, 26.6 4.79 C28.86 7.15, 30.79 11.12, 31.05 14.37 C31.31 17.63, 30 21.58, 28.15 24.29 C26.31 27.01, 23.08 29.74, 19.96 30.68 C16.84 31.61, 12.54 31.33, 9.42 29.89 C6.3 28.45, 2.74 25.2, 1.24 22.06 C-0.27 18.91, -0.62 14.22, 0.38 11.02 C1.38 7.81, 4.34 4.72, 7.23 2.83 C10.11 0.94, 15.87 0.04, 17.7 -0.31 C19.53 -0.65, 18.23 0.48, 18.21 0.77 M17.76 0.56 C20.81 0.92, 25.08 2.41, 27.23 5.03 C29.38 7.65, 30.49 12.84, 30.65 16.27 C30.81 19.71, 30.27 23.11, 28.2 25.65 C26.12 28.19, 21.71 30.94, 18.2 31.52 C14.7 32.09, 10.12 30.95, 7.17 29.12 C4.23 27.29, 1.63 23.55, 0.52 20.52 C-0.59 17.48, -0.74 13.98, 0.54 10.9 C1.82 7.81, 5.13 3.82, 8.18 2 C11.22 0.18, 17.22 0.18, 18.79 -0.01 C20.37 -0.2, 17.61 0.45, 17.6 0.87" stroke="none" stroke-width="0" fill="#a5d8ff"></path><path d="M17.24 0.23 C20.46 0.3, 24.22 2.11, 26.55 4.41 C28.88 6.71, 30.93 10.75, 31.23 14.02 C31.52 17.28, 30.23 21.21, 28.34 24 C26.45 26.79, 23.1 29.82, 19.89 30.74 C16.68 31.66, 12.2 30.97, 9.09 29.54 C5.99 28.12, 2.73 25.12, 1.26 22.18 C-0.21 19.25, -0.64 15.12, 0.27 11.95 C1.18 8.78, 3.96 5.15, 6.73 3.18 C9.49 1.22, 15.03 0.66, 16.87 0.17 C18.71 -0.32, 17.7 0.09, 17.76 0.25 M15.37 -0.06 C18.56 -0.15, 22.33 2.01, 24.87 4.01 C27.42 6.02, 29.9 8.71, 30.65 11.99 C31.4 15.26, 30.91 20.58, 29.38 23.68 C27.84 26.78, 24.52 29.55, 21.44 30.58 C18.37 31.6, 14.06 30.92, 10.91 29.84 C7.77 28.77, 4.42 26.79, 2.59 24.12 C0.75 21.46, -0.48 17.12, -0.09 13.86 C0.3 10.6, 2.4 6.92, 4.92 4.57 C7.43 2.21, 13.22 0.49, 15.02 -0.26 C16.81 -1.02, 15.69 -0.29, 15.69 0.04" stroke="#1971c2" stroke-width="2" fill="none"></path></g><g stroke-linecap="round"><g transform="translate(202 288.1511527195573) rotate(0 1 -139)"><path d="M-1.05 0.02 C-0.83 -46.22, 1.48 -231.98, 1.94 -278.15 M0.59 -1.02 C0.6 -47, 0.93 -230.39, 0.96 -276.69" stroke="#1971c2" stroke-width="2" fill="none"></path></g></g><mask></mask><g stroke-linecap="round"><g transform="translate(202 187.48449622541665) rotate(0 24 -33)"><path d="M-0.62 0.05 C6.79 -2.7, 37.45 -6.04, 45.58 -17.14 C53.7 -28.25, 47.71 -58.31, 48.11 -66.58 M1.25 -0.97 C8.43 -3.56, 37.06 -5.44, 44.75 -16.21 C52.45 -26.98, 46.83 -57.26, 47.41 -65.57" stroke="#e03131" stroke-width="2" fill="none"></path></g></g><mask></mask><g stroke-linecap="round" transform="translate(186.6666259765625 171.48449622541665) rotate(0 15.666656494140625 15.666656494140625)"><path d="M14.15 0.06 C17.37 -0.33, 22.06 1.18, 24.88 3.19 C27.71 5.2, 30.28 8.97, 31.11 12.11 C31.94 15.26, 31.39 19.2, 29.86 22.08 C28.33 24.97, 25 27.93, 21.91 29.42 C18.83 30.91, 14.55 31.89, 11.35 31.03 C8.16 30.16, 4.7 27.05, 2.74 24.24 C0.78 21.43, -0.66 17.45, -0.41 14.18 C-0.17 10.92, 1.73 7.02, 4.23 4.63 C6.73 2.24, 12.78 0.57, 14.6 -0.15 C16.41 -0.86, 15.13 0.09, 15.12 0.33 M16.22 -0.26 C19.4 -0.47, 24 1.03, 26.36 3.25 C28.72 5.46, 29.95 9.55, 30.38 13.03 C30.8 16.52, 30.56 21.2, 28.93 24.15 C27.31 27.1, 23.64 29.59, 20.63 30.74 C17.61 31.89, 13.82 32.14, 10.85 31.05 C7.88 29.95, 4.63 27.21, 2.81 24.15 C0.99 21.09, -0.58 16.04, -0.07 12.7 C0.43 9.37, 3.28 6.16, 5.83 4.13 C8.38 2.1, 13.57 1.12, 15.24 0.53 C16.91 -0.07, 15.85 0.28, 15.83 0.54" stroke="none" stroke-width="0" fill="#a5d8ff"></path><path d="M12.11 0.12 C15.24 -0.75, 19.81 0.57, 22.9 2.19 C25.98 3.82, 29.42 6.77, 30.64 9.88 C31.86 13, 31.26 17.65, 30.2 20.88 C29.15 24.12, 27.11 27.58, 24.3 29.28 C21.5 30.98, 16.77 31.59, 13.38 31.1 C9.99 30.6, 6.16 28.74, 3.98 26.31 C1.8 23.88, 0.48 19.9, 0.3 16.53 C0.11 13.17, 0.72 8.87, 2.86 6.13 C5 3.38, 11.34 1.06, 13.13 0.06 C14.92 -0.95, 13.53 -0.13, 13.6 0.1 M11.99 0.9 C15.02 -0.11, 19.93 0.02, 22.84 1.42 C25.75 2.83, 28.06 6.21, 29.47 9.32 C30.88 12.43, 32.28 16.74, 31.3 20.09 C30.33 23.44, 26.43 27.63, 23.6 29.41 C20.78 31.19, 17.68 31.34, 14.37 30.77 C11.05 30.19, 6.13 28.35, 3.72 25.97 C1.3 23.59, 0.1 19.72, -0.11 16.47 C-0.33 13.22, 0.4 9.13, 2.43 6.48 C4.45 3.84, 10.45 1.63, 12.04 0.58 C13.63 -0.47, 11.81 -0.1, 11.97 0.18" stroke="#1971c2" stroke-width="2" fill="none"></path></g><g stroke-linecap="round" transform="translate(237.33331298828125 108.8178092136979) rotate(0 15.666656494140625 15.666656494140625)"><path d="M19.75 0.79 C22.93 1.28, 26.68 3.68, 28.52 6.24 C30.37 8.79, 31.12 12.68, 30.82 16.12 C30.53 19.55, 28.95 24.3, 26.75 26.83 C24.55 29.37, 20.87 30.96, 17.63 31.33 C14.39 31.71, 10.05 30.98, 7.3 29.08 C4.55 27.18, 2.19 23.21, 1.15 19.92 C0.11 16.63, -0.11 12.43, 1.08 9.35 C2.26 6.27, 5.1 2.92, 8.23 1.45 C11.37 -0.03, 17.82 0.55, 19.89 0.49 C21.95 0.42, 20.74 0.81, 20.62 1.06 M14.15 -0.62 C17.28 -1.32, 21.76 0.11, 24.65 2.22 C27.53 4.32, 30.5 8.55, 31.46 12.01 C32.42 15.47, 31.98 20.13, 30.4 22.99 C28.82 25.85, 24.97 27.76, 21.96 29.16 C18.95 30.56, 15.59 32.19, 12.34 31.39 C9.09 30.6, 4.46 27.35, 2.47 24.39 C0.49 21.44, 0.14 17.07, 0.44 13.66 C0.73 10.25, 1.91 6.17, 4.24 3.93 C6.57 1.69, 12.81 0.79, 14.44 0.2 C16.06 -0.38, 14 0.18, 14.01 0.4" stroke="none" stroke-width="0" fill="#ffc9c9"></path><path d="M17.98 0.44 C21.17 0.85, 25 2.91, 27.24 5.46 C29.47 8.02, 31.31 12.35, 31.41 15.77 C31.51 19.19, 29.93 23.39, 27.83 25.96 C25.73 28.53, 22.1 30.65, 18.81 31.2 C15.51 31.74, 11.06 30.87, 8.06 29.24 C5.06 27.62, 2.04 24.63, 0.83 21.45 C-0.37 18.28, -0.34 13.46, 0.82 10.21 C1.98 6.96, 4.89 3.53, 7.79 1.94 C10.69 0.35, 16.3 0.86, 18.21 0.67 C20.12 0.48, 19.24 0.63, 19.25 0.8 M18.72 0.07 C21.67 0.65, 25.36 3.75, 27.4 6.53 C29.44 9.31, 31.02 13.54, 30.96 16.77 C30.9 20.01, 29.13 23.56, 27.06 25.94 C24.98 28.32, 21.75 30.54, 18.52 31.05 C15.28 31.56, 10.5 30.69, 7.66 29 C4.82 27.3, 2.5 24, 1.47 20.9 C0.44 17.8, 0.38 13.53, 1.5 10.4 C2.61 7.26, 5.23 3.66, 8.15 2.08 C11.06 0.5, 17.11 1.11, 18.99 0.92 C20.86 0.72, 19.37 0.71, 19.39 0.92" stroke="#e03131" stroke-width="2" fill="none"></path></g><g stroke-linecap="round" transform="translate(186.6666259765625 55.48449622541665) rotate(0 15.666656494140625 15.666656494140625)"><path d="M14.38 0.18 C17.62 -0.35, 22.4 0.86, 25.14 2.7 C27.89 4.54, 30.06 7.91, 30.83 11.2 C31.6 14.49, 31.21 19.34, 29.77 22.45 C28.34 25.57, 25.29 28.51, 22.22 29.89 C19.16 31.27, 14.6 31.64, 11.37 30.74 C8.13 29.84, 4.63 27.3, 2.81 24.5 C1 21.7, 0.14 17.26, 0.48 13.95 C0.81 10.64, 2.42 6.9, 4.83 4.64 C7.24 2.37, 13.25 1.04, 14.94 0.36 C16.62 -0.32, 14.9 0.4, 14.93 0.54 M17.8 -0.06 C21.05 0.21, 25.07 2.25, 27.23 4.82 C29.39 7.39, 30.55 11.95, 30.76 15.36 C30.96 18.77, 30.59 22.57, 28.46 25.28 C26.33 27.99, 21.3 30.88, 17.97 31.62 C14.64 32.35, 11.41 31.52, 8.48 29.69 C5.55 27.85, 1.68 23.69, 0.41 20.62 C-0.87 17.55, -0.47 14.34, 0.81 11.26 C2.09 8.19, 5.29 3.95, 8.09 2.16 C10.89 0.37, 15.96 0.84, 17.62 0.53 C19.29 0.23, 18 0.11, 18.07 0.33" stroke="none" stroke-width="0" fill="#a5d8ff"></path><path d="M16.23 -0.33 C19.39 -0.38, 22.96 1.84, 25.51 4.17 C28.07 6.51, 30.98 10.46, 31.54 13.69 C32.1 16.93, 30.66 20.79, 28.88 23.57 C27.09 26.35, 23.95 29.3, 20.85 30.39 C17.74 31.47, 13.44 31.28, 10.27 30.1 C7.1 28.93, 3.55 26.16, 1.82 23.33 C0.09 20.5, -0.81 16.47, -0.13 13.11 C0.56 9.76, 3.03 5.29, 5.92 3.19 C8.81 1.08, 15.26 0.96, 17.22 0.51 C19.17 0.06, 17.71 0.26, 17.67 0.47 M15.72 0.32 C18.91 0.29, 23.64 1.34, 26.21 3.68 C28.79 6.03, 30.74 11.02, 31.18 14.36 C31.62 17.7, 30.73 21.08, 28.83 23.73 C26.94 26.37, 23.05 29.18, 19.81 30.21 C16.56 31.23, 12.29 31.14, 9.36 29.88 C6.43 28.62, 3.79 25.56, 2.23 22.65 C0.67 19.74, -0.74 15.73, -0.02 12.42 C0.71 9.1, 3.7 4.93, 6.55 2.76 C9.41 0.59, 15.43 -0.17, 17.14 -0.62 C18.85 -1.06, 16.81 -0.26, 16.81 0.09" stroke="#1971c2" stroke-width="2" fill="none"></path></g><g stroke-linecap="round"><g transform="translate(78 124.1511832371354) rotate(0 -25.666656494140625 -36.333343505859375)"><path d="M0.02 0.42 C-1.35 -9.71, -0.75 -48.07, -9.17 -60.07 C-17.6 -72.08, -43.45 -69.38, -50.53 -71.6 M-1.43 -0.41 C-2.86 -10.46, -1.8 -46.76, -10.04 -58.92 C-18.28 -71.09, -43.95 -71.09, -50.88 -73.39" stroke="#e03131" stroke-width="2" fill="none"></path></g></g><mask></mask><g stroke-linecap="round" transform="translate(60 112.15115271955727) rotate(0 15.666656494140625 15.666656494140625)"><path d="M14.84 0.11 C17.93 -0.24, 22.4 1.27, 25.05 3.24 C27.69 5.2, 29.91 8.64, 30.72 11.91 C31.52 15.17, 31.33 19.77, 29.89 22.83 C28.44 25.89, 25.26 28.99, 22.06 30.26 C18.86 31.54, 13.99 31.59, 10.68 30.47 C7.37 29.35, 3.89 26.35, 2.21 23.53 C0.53 20.72, 0.09 16.91, 0.58 13.59 C1.08 10.27, 2.59 5.83, 5.2 3.61 C7.8 1.39, 14.22 0.85, 16.22 0.27 C18.23 -0.31, 17.2 -0.11, 17.23 0.15 M12.3 -0.23 C15.37 -0.97, 19.51 0.93, 22.59 2.64 C25.68 4.35, 29.51 6.93, 30.78 10.03 C32.06 13.12, 31.52 18.06, 30.23 21.21 C28.93 24.37, 25.92 27.39, 23.01 28.95 C20.1 30.51, 16.01 30.98, 12.76 30.57 C9.5 30.15, 5.51 28.92, 3.45 26.46 C1.39 24, 0.32 19.28, 0.4 15.79 C0.49 12.31, 2.03 8.09, 3.97 5.56 C5.91 3.03, 10.44 1.33, 12.02 0.62 C13.6 -0.09, 13.15 1.06, 13.44 1.31" stroke="none" stroke-width="0" fill="#ffc9c9"></path><path d="M13.31 0.19 C16.35 -0.52, 20.98 0.6, 23.8 2.28 C26.61 3.95, 29.13 7.04, 30.19 10.23 C31.26 13.41, 31.37 18.26, 30.17 21.39 C28.96 24.51, 25.96 27.43, 22.98 28.98 C19.99 30.53, 15.54 31.25, 12.25 30.68 C8.96 30.1, 5.23 28.06, 3.23 25.53 C1.24 23, 0.2 18.84, 0.27 15.49 C0.34 12.14, 1.32 8.01, 3.64 5.42 C5.96 2.82, 12.33 0.85, 14.18 -0.07 C16.03 -0.99, 14.77 -0.34, 14.74 -0.1 M11.72 1.12 C14.67 0.15, 19.39 -0.2, 22.43 1.31 C25.47 2.83, 28.59 7, 29.94 10.22 C31.29 13.44, 31.47 17.66, 30.53 20.63 C29.58 23.6, 27.03 26.27, 24.27 28.06 C21.51 29.84, 17.34 31.57, 13.96 31.34 C10.58 31.12, 6.35 29.09, 3.98 26.7 C1.62 24.32, -0.07 20.48, -0.22 17.02 C-0.37 13.57, 0.92 8.8, 3.08 5.98 C5.24 3.16, 11.22 0.98, 12.72 0.12 C14.22 -0.74, 12.11 0.57, 12.08 0.83" stroke="#e03131" stroke-width="2" fill="none"></path></g></svg>